<?xml version="1.0" encoding="utf-8"?>
<!-- Generator: Adobe Illustrator 16.0.0, SVG Export Plug-In . SVG Version: 6.00 Build 0)  -->
<!DOCTYPE svg PUBLIC "-//W3C//DTD SVG 1.1//EN" "http://www.w3.org/Graphics/SVG/1.1/DTD/svg11.dtd">
<svg version="1.1" id="Rectangle_1_copy_3_1_" xmlns="http://www.w3.org/2000/svg" xmlns:xlink="http://www.w3.org/1999/xlink"
	 x="0px" y="0px" width="58px" height="33px" viewBox="0 0 58 33" enable-background="new 0 0 58 33" xml:space="preserve">
<g id="Rectangle_1_copy_3">
	<g>
		<path fill-rule="evenodd" clip-rule="evenodd" fill="#FFFFFF" d="M43.046,12.72h-2.147l-2.258,7.993h2.147
			c1.207,0,2.166-1.024,2.453-2.067l1.251-4.442C44.78,13.161,44.253,12.72,43.046,12.72z M43.878-0.008H23.11
			c-8.006,0-16.556,6.169-18.649,13.771v0.271l-0.569,2.438L-0.44,33.001h14.564h20.761c8.014,0,16.259-6.267,18.333-13.863
			l0.728-2.688l0.723-2.653L58.44-0.008H43.878z M13.695,8.909h3.717l-0.765,2.688H12.93L13.695,8.909z M13.096,24.069H9.379
			l3.048-10.705h3.717L13.096,24.069z M25.695,24.069l-2.15-0.001l0.367-1.389c-1.444,0.999-3.051,1.39-4.322,1.39l-3.981-0.011
			L19.805,8.92h3.982l-3.134,11.31c1.195,0,2.342-0.792,2.626-1.816l2.632-9.493h3.982l-2.632,9.497l-0.502,1.817
			c1.195,0,2.342-0.794,2.627-1.819l2.632-9.495h3.981l-2.632,9.497C32.513,21.494,29.014,24.069,25.695,24.069z M48.44,14.315
			l-1.138,4.106c-0.854,3.077-4.353,5.645-7.671,5.645l-5.84-0.009L37.988,8.92h6.106C47.412,8.92,49.294,11.238,48.44,14.315z"/>
	</g>
</g>
</svg>
