<?xml version="1.0" encoding="utf-8"?>
<!-- Generator: Adobe Illustrator 16.0.0, SVG Export Plug-In . SVG Version: 6.00 Build 0)  -->
<!DOCTYPE svg PUBLIC "-//W3C//DTD SVG 1.1//EN" "http://www.w3.org/Graphics/SVG/1.1/DTD/svg11.dtd">
<svg version="1.1" id="normal_1_" xmlns="http://www.w3.org/2000/svg" xmlns:xlink="http://www.w3.org/1999/xlink" x="0px" y="0px"
	 width="32px" height="18px" viewBox="0 0 32 18" enable-background="new 0 0 32 18" xml:space="preserve">
<g id="normal">
	<g>
		<path fill-rule="evenodd" clip-rule="evenodd" fill="#637283" d="M24.343,6.022h-1.329l-1.397,4.947h1.329
			c0.747,0,1.341-0.633,1.519-1.279l0.774-2.749C25.416,6.296,25.09,6.022,24.343,6.022z M24.078-0.021H12.693
			c-4.349,0-8.931,3.413-10.068,7.542l-2.662,10.45h7.912h11.277c4.353,0,8.831-3.404,9.958-7.53l0.396-1.46l0.393-1.44l2.049-7.562
			H24.078z M6.894,4.011h2.199L8.516,6.037H6.316L6.894,4.011z M6.539,12.981h-2.2l1.693-5.944h2.199L6.539,12.981z M13.994,12.981
			h-1.272l0.217-0.822c-0.854,0.592-1.805,0.822-2.558,0.822l-2.356-0.006l2.483-8.958h2.356l-1.854,6.691
			c0.707,0,1.386-0.468,1.554-1.075l1.558-5.616h2.356L14.92,9.637l-0.297,1.075c0.707,0,1.386-0.469,1.555-1.076l1.557-5.618h2.356
			l-1.558,5.619C18.028,11.459,15.958,12.981,13.994,12.981z M27.454,7.209L26.781,9.64c-0.506,1.821-2.576,3.341-4.539,3.341
			l-3.457-0.006l2.484-8.957h3.612C26.846,4.018,27.959,5.389,27.454,7.209z"/>
	</g>
</g>
</svg>
