<?xml version="1.0" encoding="utf-8"?>
<!-- Generator: Adobe Illustrator 16.0.0, SVG Export Plug-In . SVG Version: 6.00 Build 0)  -->
<!DOCTYPE svg PUBLIC "-//W3C//DTD SVG 1.1//EN" "http://www.w3.org/Graphics/SVG/1.1/DTD/svg11.dtd">
<svg version="1.1" id="Layer_1" xmlns="http://www.w3.org/2000/svg" xmlns:xlink="http://www.w3.org/1999/xlink" x="0px" y="0px"
	 width="320px" height="840px" viewBox="0 0 320 840" enable-background="new 0 0 320 840" xml:space="preserve">
<g id="phone_copy_1_" enable-background="new    ">
	<g id="phone_copy">
		<g>
			<path fill="#FFFFFF" d="M76.8,139.845l0.002-0.004c0,0-2.641-4.515-2.643-4.517c-0.207-0.358-0.658-0.471-1.011-0.263
				l-2.066,1.244c-0.792,0.456-1.465-0.328-2.697-2.022c-0.022-0.014-2.426-4.118-2.434-4.17c-0.492-1.094-0.888-2.209-0.078-2.717
				l0.001,0.001c0,0,2.073-1.244,2.075-1.245v-0.004c0.37-0.226,0.459-0.687,0.261-1.025v-0.005c0,0-2.716-4.646-2.716-4.647
				c-0.209-0.359-0.66-0.472-1.011-0.264l-2.063,1.24l-0.001-0.001c-0.002,0.001-0.005,0.005-0.009,0.007l-0.004,0.003v0.001
				c-0.908,0.705-3.408,4.409,1.329,12.765c4.979,8.777,9.714,8.478,10.718,7.887l0.01,0.016c0,0,2.076-1.246,2.074-1.248
				l0.004-0.002C76.914,140.653,77,140.191,76.8,139.845z"/>
		</g>
	</g>
</g>
<g id="Rectangle_112_copy_4_5_" enable-background="new    ">
	<g id="Rectangle_112_copy_4">
		<g>
			<polygon fill="#58728C" points="71,0.745 70.246,0 65.5,4.763 60.754,0 60,0.745 65.237,6 65.5,5.74 65.763,6 			"/>
		</g>
	</g>
</g>
<g id="Rectangle_112_1_" enable-background="new    ">
	<g id="Rectangle_112">
		<g>
			<polygon fill="#FFFFFF" points="70.996,40.748 70.243,40.004 65.5,44.76 60.757,40.004 60.004,40.748 65.237,45.996 65.5,45.736 
				65.763,45.996 			"/>
		</g>
	</g>
</g>
<g id="Rectangle_112_copy_4_4_" enable-background="new    ">
	<g id="Rectangle_112_copy_4_1_">
		<g>
			<polygon fill="#A3BDC6" points="91,0.745 90.246,0 85.5,4.763 80.754,0 80,0.745 85.237,6 85.5,5.74 85.763,6 			"/>
		</g>
	</g>
</g>
<g id="Rectangle_112_copy_10_1_" enable-background="new    ">
	<g id="Rectangle_112_copy_10">
		<g>
			<polygon fill="#05ADF8" points="91,40.745 90.246,40 85.5,44.763 80.754,40 80,40.745 85.237,46 85.5,45.74 85.763,46 			"/>
		</g>
	</g>
</g>
<g id="Rectangle_112_copy_4_3_" enable-background="new    ">
	<g id="Rectangle_112_copy_4_2_">
		<g>
			<polygon fill="#0CABE2" points="108,6.665 100.994,0 100,0.959 106.35,7 100,13.041 100.994,14 108,7.335 107.653,7 			"/>
		</g>
	</g>
</g>
<g id="Shape_58_1_" enable-background="new    ">
	<g id="Shape_58">
		<g>
			<path fill="#FFFFFF" d="M83.922,60.989l-7.623,6.619l7.616,7.424C83.966,74.89,84,74.738,84,74.58V61.42
				C84,61.268,83.969,61.126,83.922,60.989z M69.904,67.553l2.139,1.652l2.143-1.657l1.084-0.839l8.17-6.646
				C83.304,60.026,83.165,60,83.019,60H61.067c-0.146,0-0.287,0.026-0.421,0.064l8.174,6.648L69.904,67.553z M72.042,70.9
				l-3.167-2.449l-8.211,7.489c0.129,0.035,0.263,0.06,0.402,0.06h21.951c0.142,0,0.273-0.023,0.403-0.06l-8.207-7.492L72.042,70.9z
				 M60.078,60.989C60.031,61.126,60,61.268,60,61.42v13.16c0,0.159,0.034,0.311,0.086,0.452l7.704-7.42L60.078,60.989z"/>
		</g>
	</g>
</g>
<g id="icons_1_">
	<g id="Shape_1">
		<g>
			<path fill="#FFFFFF" d="M24.52,301.013c-0.185-0.263-0.479-0.55-0.931-0.749c-0.222-0.182-0.492-0.253-0.761-0.21
				c-0.161-0.022-0.33-0.037-0.518-0.037c0,0-0.001,0-0.002,0l-19.681-0.001c-1.189,0-1.824,0.542-2.152,1.005
				c-0.317,0.457-0.474,1.026-0.474,1.745v12.487c0,0.169,0.003,0.317,0.021,0.469c0.186,1.432,1.151,2.264,2.667,2.282H22.31
				c0.004,0,0.009,0,0.013,0c1.506-0.02,2.473-0.853,2.657-2.293c0.018-0.146,0.021-0.292,0.021-0.458v-12.487
				C24.999,302.05,24.844,301.479,24.52,301.013z M16.521,309.17c-0.31-0.207-0.686-0.203-0.995-0.048l7.457-6.681
				c0.01,0.073,0.017,0.157,0.017,0.266v10.513L16.521,309.17z M20.406,301.997l-7.015,6.285c-0.271,0.261-0.837,0.639-1.148,0.639
				c-0.321,0-0.935-0.398-1.264-0.695l-7.035-6.229C7.451,301.992,16.417,301.995,20.406,301.997z M2.003,313.217v-10.198
				l6.79,6.012c-0.12,0.026-0.238,0.07-0.347,0.143L2.003,313.217z M22.303,315.99H2.705c-0.591-0.007-0.652-0.182-0.689-0.448
				l7.537-4.729c0.264-0.177,0.399-0.459,0.42-0.754c0.468,0.365,1.356,0.947,2.27,0.947c1.207,0,2.303-0.992,2.483-1.169l0.4-0.358
				c-0.276,0.451-0.155,1.042,0.29,1.338l7.567,4.729C22.947,315.809,22.882,315.982,22.303,315.99z"/>
		</g>
	</g>
	<g id="Shape_4">
		<g>
			<path fill="#FFFFFF" d="M27.883,248.905c-0.123-0.271-0.535-0.898-1.709-0.898h-3.162v-3.039c0-1.414-1.641-1.968-3.012-1.968H10
				c-0.089-1.331-0.687-3-2-3l-5.518,0.016c-1.372,0-2.487,1.15-2.487,2.565v15.4c0,0.56,0.438,1.012,0.98,1.012
				c0.091,0,0.173-0.029,0.257-0.053c0.175,0.04,0.365,0.068,0.594,0.068h18.375c1.138,0,1.656-0.608,2.035-1.054
				c0.091-0.104,0.187-0.219,0.302-0.336c0.037-0.038,0.069-0.077,0.1-0.12l4.824-6.848
				C28.195,249.856,28.003,249.17,27.883,248.905z M2.483,242.039c0,0,4.518-0.039,4.521-0.041c0.728-0.27,1.08,0.286,0.997,1.002v1
				c0,0.561,0.458,1,1,1h11c0.713,0,1,0.7,1,1v2.007H7.8c-1.628,0-2.991,2.307-2.437,1.51l-3.406,4.833v-11.769
				C1.958,242.282,2.193,242.039,2.483,242.039z M21.005,256.36C20.867,256.505,20.59,257,20,257H3c0,0-0.378-0.139-0.129-0.492
				c1.106-1.57,4.125-5.854,4.125-5.854C7.034,250.614,7.322,250,8,250c0,0,13.918,0.013,17,0c0.422-0.002,0.529-0.063,0.529-0.063
				L21.005,256.36z"/>
		</g>
	</g>
	<g id="Shape_5">
		<g>
			<path fill="#FFFFFF" d="M21,198c-0.553,0-1,0.447-1,1v1c0,0.554,0.447,1,1,1c0.552,0,1-0.446,1-1v-1
				C22,198.447,21.552,198,21,198z M21,193c-0.553,0-1,0.447-1,1v1c0,0.554,0.447,1,1,1c0.552,0,1-0.446,1-1v-1
				C22,193.447,21.552,193,21,193z M26.997,204.984c0-0.002,0.001-0.004,0.001-0.006v-14.362c0-1.438-1.153-2.611-2.569-2.611
				h-7.423c-0.007,0-0.012,0.004-0.02,0.004v-5.438c0-1.409-1.125-2.557-2.508-2.557H3.511c-1.382,0-2.508,1.146-2.508,2.557v22.414
				C1.003,204.989,1,204.994,1,205c0,0.238,0.095,0.448,0.232,0.619c0.021,0.027,0.033,0.062,0.058,0.084
				c0.041,0.041,0.095,0.064,0.142,0.097c0.056,0.04,0.106,0.089,0.171,0.115C1.725,205.969,1.858,206,2,206h24c0.552,0,1-0.446,1-1
				C27,204.995,26.997,204.99,26.997,204.984z M10,204H8v-6h2V204z M15,204h-2.989v-7.062c0-0.526-0.473-0.952-1.058-0.952H7.051
				c-0.585,0-1.058,0.426-1.058,0.952V204H3v-21c0-0.313,0.203-1.001,0.511-1.001h10.968c0.309,0,0.521,0.688,0.521,1.001V204z
				 M25,204h-8.014v-14.002c0.006,0,0.009,0.002,0.014,0.002h7c0.315,0,1,0.68,1,1V204z M9,190c-0.553,0-1,0.447-1,1v1
				c0,0.554,0.447,1,1,1c0.552,0,1-0.446,1-1v-1C10,190.447,9.552,190,9,190z M9,185c-0.553,0-1,0.447-1,1v1c0,0.554,0.447,1,1,1
				c0.552,0,1-0.446,1-1v-1C10,185.447,9.552,185,9,185z"/>
		</g>
	</g>
	<g id="Shape_10">
		<g>
			<path fill="#FFFFFF" d="M13.02,128.041c-2.754,0-4.994,2.242-4.994,4.999c0,2.756,2.24,4.997,4.994,4.997
				c2.752,0,4.992-2.241,4.992-4.997C18.012,130.283,15.772,128.041,13.02,128.041z M13.02,136.039
				c-1.651,0-2.997-1.345-2.997-2.999s1.345-3.001,2.997-3.001c1.651,0,2.994,1.347,2.994,3.001S14.671,136.039,13.02,136.039z
				 M25.891,131.567c-0.104-0.91-0.997-1.473-1.761-1.473c-0.691,0-1.301-0.402-1.555-1.022c-0.262-0.639-0.093-1.382,0.419-1.85
				c0.638-0.586,0.718-1.578,0.183-2.26c-0.613-0.777-1.305-1.479-2.055-2.078c-0.66-0.531-1.72-0.442-2.277,0.183
				c-0.418,0.465-1.283,0.661-1.857,0.42c-0.643-0.271-1.047-0.924-1.008-1.624c0.051-0.881-0.595-1.649-1.47-1.749
				c-0.971-0.112-1.955-0.115-2.921-0.009c-0.856,0.097-1.506,0.848-1.479,1.715c0.024,0.695-0.385,1.338-1.02,1.598
				c-0.572,0.232-1.43,0.034-1.846-0.421c-0.562-0.62-1.594-0.713-2.259-0.191c-0.775,0.605-1.481,1.307-2.102,2.078
				c-0.549,0.688-0.469,1.688,0.181,2.274c0.522,0.473,0.69,1.223,0.42,1.865c-0.258,0.61-0.918,1.008-1.709,1.008c0,0,0,0-0.001,0
				c-0.854,0-1.553,0.616-1.658,1.473c-0.113,0.969-0.115,1.961-0.006,2.961c0.107,0.906,1.007,1.47,1.84,1.47
				c0.629-0.018,1.226,0.411,1.479,1.022c0.26,0.637,0.092,1.379-0.421,1.851c-0.638,0.587-0.717,1.577-0.184,2.255
				c0.601,0.766,1.292,1.467,2.054,2.081c0.657,0.529,1.699,0.453,2.28-0.183c0.42-0.465,1.281-0.659,1.856-0.42
				c0.644,0.271,1.05,0.924,1.011,1.621c-0.054,0.887,0.594,1.656,1.462,1.751c0.483,0.06,0.987,0.088,1.501,0.088
				c0.479,0,0.958-0.025,1.425-0.078c0.871-0.098,1.508-0.833,1.48-1.719c-0.025-0.691,0.383-1.334,1.019-1.593
				c0.573-0.237,1.429-0.038,1.852,0.424c0.563,0.618,1.58,0.712,2.256,0.189c0.775-0.609,1.482-1.311,2.104-2.082
				c0.545-0.688,0.465-1.687-0.184-2.273c-0.521-0.473-0.69-1.222-0.42-1.866c0.252-0.604,0.867-1.011,1.502-1.011l0.092,0.002
				c0.027,0.001,0.104,0.004,0.132,0.004c0.838,0,1.544-0.633,1.643-1.47C25.999,133.561,26.001,132.566,25.891,131.567z
				 M23.931,133.996c-1.413,0.046-2.713,0.934-3.258,2.235c-0.555,1.325-0.272,2.851,0.695,3.895
				c-0.413,0.486-0.868,0.937-1.354,1.341c-0.999-0.904-2.615-1.216-3.862-0.704c-1.313,0.536-2.189,1.803-2.256,3.202
				c-0.62,0.054-1.262,0.053-1.876-0.005c-0.044-1.421-0.913-2.706-2.234-3.261c-1.247-0.525-2.889-0.215-3.888,0.696
				c-0.478-0.408-0.92-0.856-1.32-1.339c0.95-1.036,1.233-2.549,0.696-3.859c-0.536-1.299-1.789-2.188-3.209-2.257
				c-0.055-0.647-0.053-1.291,0.004-1.92c1.459-0.094,2.721-0.945,3.257-2.224c0.556-1.322,0.274-2.849-0.693-3.896
				c0.413-0.487,0.866-0.937,1.354-1.341c0.998,0.904,2.62,1.213,3.859,0.706c1.31-0.538,2.188-1.804,2.256-3.204
				c0.622-0.054,1.25-0.05,1.877,0.005c0.044,1.42,0.911,2.705,2.234,3.262c1.248,0.525,2.88,0.219,3.887-0.697
				c0.473,0.401,0.916,0.85,1.322,1.34c-0.949,1.033-1.232,2.545-0.696,3.855c0.539,1.316,1.785,2.188,3.21,2.26
				C23.989,132.729,23.988,133.368,23.931,133.996z"/>
		</g>
	</g>
	<g id="Shape_6">
		<g>
			<path fill="#FFFFFF" d="M24.322,63.012H18v-2.08c0-0.515-0.444-0.931-0.992-0.931H9.988c-0.548,0-0.991,0.416-0.991,0.931v2.08
				H2.678c-0.926,0-1.679,0.771-1.679,1.721v14.545C0.999,80.227,1.752,81,2.678,81h21.644c0.926,0,1.678-0.771,1.678-1.723V64.732
				C25.999,63.783,25.247,63.012,24.322,63.012z M11.012,61.99h4.974v1.007h-4.974V61.99z M23.996,79.003H3.002v-7.019
				c0.007,0,0.013,0.004,0.02,0.004h7.967v1.616c0,0.715,0.473,1.306,1.071,1.382c0.045,0.009,2.698,0.011,2.743,0.011
				c0.663,0,1.206-0.624,1.206-1.393v-1.616h7.987V79.003z M12.994,69.988l1.007-0.004l0.002,3.018l-1.008-0.003L12.994,69.988z
				 M23.996,69.985h-7.988v-0.602c0-0.769-0.541-1.394-1.204-1.394c-0.056,0-2.718,0.005-2.769,0.012
				c-0.59,0.092-1.047,0.677-1.047,1.382v0.602H3.021c-0.007,0-0.013,0.004-0.02,0.004v-4.982h20.994L23.996,69.985L23.996,69.985z"
				/>
		</g>
	</g>
	<g id="Shape_7">
		<g>
			<path fill="#FFFFFF" d="M28.001,3.998H26l0.015-1.981C26.015,0.902,25.104,0,23.981,0H2.028C0.905,0-0.005,0.902-0.005,2.016
				v11.968c0,1.113,0.91,2.017,2.033,2.017h9.993c-0.001,0.023-0.013,0.043-0.013,0.067v2.934H9.966c-0.537,0-0.972,0.447-0.972,1
				c0,0.554,0.435,1,0.972,1h6.047c0.538,0,0.972-0.446,0.972-1c0-0.553-0.435-1-0.972-1H14v-2.934c0-0.024-0.012-0.044-0.014-0.067
				h4.998v4.017c0,0.544,0.448,0.983,1.001,0.983h8.016c0.554,0,1.002-0.439,1.002-0.983V4.982
				C29.003,4.438,28.556,3.998,28.001,3.998z M18.985,4.982v9.001H2.028V2.016h21.953L24,3.998h-4.015
				C19.433,3.998,18.985,4.438,18.985,4.982z M27,19.03h-6.013V5.967H27V19.03z M24,17c0.552,0,1-0.446,1-1c0-0.553-0.448-1-1-1
				c-0.553,0-1,0.447-1,1C23,16.553,23.448,17,24,17z"/>
		</g>
	</g>
</g>
<g id="Rectangle_112_copy_3">
	<g>
		<polygon fill-rule="evenodd" clip-rule="evenodd" fill="#A2A2A2" points="134.987,1.34 133.647,0 127.493,6.153 121.34,0 
			120,1.34 126.154,7.493 120,13.646 121.34,14.986 127.493,8.833 133.647,14.986 134.987,13.646 128.833,7.493 		"/>
	</g>
</g>
<g id="Rectangle_112_copy">
	<g>
		<polygon fill-rule="evenodd" clip-rule="evenodd" fill="#A2A2A2" points="185.32,1.34 183.98,0 177.66,6.32 171.34,0 170,1.34 
			177.647,8.986 177.66,8.973 177.673,8.986 		"/>
	</g>
</g>
</svg>
